<svg id="cart" xmlns="http://www.w3.org/2000/svg" width="12.729" height="12.596" viewBox="0 0 12.729 12.596">
  <path id="Path_96" data-name="Path 96" d="M6.8,11.9a1.35,1.35,0,1,0,1.35,1.35A1.351,1.351,0,0,0,6.8,11.9Zm0,1.8a.45.45,0,1,1,.43-.45A.45.45,0,0,1,6.8,13.7Zm4.5-1.8a1.35,1.35,0,1,0,1.35,1.35A1.351,1.351,0,0,0,11.3,11.9Zm0,1.8a.45.45,0,1,1,.43-.45.45.45,0,0,1-.43.45Zm3.017-8.9a1.338,1.338,0,0,0-1.086-.548h-8.6L4.178,2.656A.9.9,0,0,0,3.312,2H2.3a.45.45,0,1,0,0,.9H3.312l.54,1.916L4.8,8.9A2.687,2.687,0,0,0,7.426,11h3.563a2.686,2.686,0,0,0,2.58-1.906L14.522,6a1.338,1.338,0,0,0-.2-1.2Zm-.656.934-.952,3.1a1.79,1.79,0,0,1-1.72,1.27H7.426A1.79,1.79,0,0,1,5.673,8.7l-.82-3.554h8.379a.449.449,0,0,1,.43.582Z" transform="translate(-1.854 -2)" fill="#636363"/>
</svg>
